<svg xmlns="http://www.w3.org/2000/svg" viewBox="0 0 300 340" width="600" height="680">
  <rect width="300" height="340" fill="#070808" rx="6"/>

  <g transform="translate(150,150)" fill="#d0ddd0">
    <!-- Fork at 0° (up) -->
    <polygon points="-4,-17 4,-17 4,-72 -4,-83" transform="rotate(-10)"/>
    <polygon points="-4,-17 4,-17 4,-83 -4,-72" transform="rotate(10)"/>

    <!-- Fork at 60° -->
    <polygon points="-4,-17 4,-17 4,-72 -4,-83" transform="rotate(50)"/>
    <polygon points="-4,-17 4,-17 4,-83 -4,-72" transform="rotate(70)"/>

    <!-- Fork at 120° -->
    <polygon points="-4,-17 4,-17 4,-72 -4,-83" transform="rotate(110)"/>
    <polygon points="-4,-17 4,-17 4,-83 -4,-72" transform="rotate(130)"/>

    <!-- Fork at 180° (down) -->
    <polygon points="-4,-17 4,-17 4,-72 -4,-83" transform="rotate(170)"/>
    <polygon points="-4,-17 4,-17 4,-83 -4,-72" transform="rotate(190)"/>

    <!-- Fork at 240° -->
    <polygon points="-4,-17 4,-17 4,-72 -4,-83" transform="rotate(230)"/>
    <polygon points="-4,-17 4,-17 4,-83 -4,-72" transform="rotate(250)"/>

    <!-- Fork at 300° -->
    <polygon points="-4,-17 4,-17 4,-72 -4,-83" transform="rotate(290)"/>
    <polygon points="-4,-17 4,-17 4,-83 -4,-72" transform="rotate(310)"/>

    <!-- Center eye -->
    <circle r="5.5"/>
  </g>

  <!-- Label -->
  <text x="150" y="288" text-anchor="middle" fill="#5a6b5a"
        font-family="'JetBrains Mono', 'Courier New', monospace" font-size="11" letter-spacing="3">
    HEIMDALL
  </text>
  <text x="150" y="308" text-anchor="middle" fill="#3d4d3d"
        font-family="'JetBrains Mono', 'Courier New', monospace" font-size="9" letter-spacing="2">
    BIFROST STARBURST
  </text>
</svg>
